REM DIRINDEX 1\2\5,1\2\6,1\2\7,1\2\8,1\3\9,1\3\10,1\3\11,1\4\12,1\4\13,1\4\14,1\4\15,1\4\16
REM DIRNAME cjc034,folder01,folder02,folder03,folder04,folder05,folder06,folder07,folder08,folder09,folder10,folder11,folder12,folder13,folder14,folder15
TITLE ""
FILE "1200_2_sec02_0509_0526.mp3" MP3
  TRACK 01 AUDIO
    TITLE "0:"
    INDEX 01 00:00:00
  TRACK 02 AUDIO
    TITLE "10:cjc034_01041"
    INDEX 01 00:00:15
  TRACK 03 AUDIO
    TITLE "0:"
    INDEX 01 00:02:20
  TRACK 04 AUDIO
    TITLE "9:cjc034_01042"
    INDEX 01 00:02:24
  TRACK 05 AUDIO
    TITLE "0:"
    INDEX 01 00:03:51
  TRACK 06 AUDIO
    TITLE "10:cjc034_01043"
    INDEX 01 00:04:38
  TRACK 07 AUDIO
    TITLE "0:"
    INDEX 01 00:05:34
  TRACK 08 AUDIO
    TITLE "9:cjc034_01044"
    INDEX 01 00:05:36
  TRACK 09 AUDIO
    TITLE "0:"
    INDEX 01 00:06:51
  TRACK 10 AUDIO
    TITLE "10:cjc034_01045"
    INDEX 01 00:07:35
  TRACK 11 AUDIO
    TITLE "0:"
    INDEX 01 00:09:34
  TRACK 12 AUDIO
    TITLE "9:cjc034_01046"
    INDEX 01 00:09:36
  TRACK 13 AUDIO
    TITLE "0:"
    INDEX 01 00:10:53
  TRACK 14 AUDIO
    TITLE "10:cjc034_01047"
    INDEX 01 00:11:39
  TRACK 15 AUDIO
    TITLE "0:"
    INDEX 01 00:12:38
  TRACK 16 AUDIO
    TITLE "9:cjc034_01048"
    INDEX 01 00:12:40
  TRACK 17 AUDIO
    TITLE "0:"
    INDEX 01 00:13:41
  TRACK 18 AUDIO
    TITLE "10:cjc034_01049"
    INDEX 01 00:14:23
  TRACK 19 AUDIO
    TITLE "0:"
    INDEX 01 00:16:44
  TRACK 20 AUDIO
    TITLE "9:cjc034_01050"
    INDEX 01 00:16:55
  TRACK 21 AUDIO
    TITLE "0:"
    INDEX 01 00:17:63
  TRACK 22 AUDIO
    TITLE "10:cjc034_01051"
    INDEX 01 00:18:44
  TRACK 23 AUDIO
    TITLE "0:"
    INDEX 01 00:20:51
  TRACK 24 AUDIO
    TITLE "9:cjc034_01052"
    INDEX 01 00:20:55
  TRACK 25 AUDIO
    TITLE "0:"
    INDEX 01 00:21:72
  TRACK 26 AUDIO
    TITLE "10:cjc034_01053"
    INDEX 01 00:22:54
  TRACK 27 AUDIO
    TITLE "0:"
    INDEX 01 00:23:40
  TRACK 28 AUDIO
    TITLE "9:cjc034_01054"
    INDEX 01 00:23:48
  TRACK 29 AUDIO
    TITLE "0:"
    INDEX 01 00:24:65
  TRACK 30 AUDIO
    TITLE "10:cjc034_01055"
    INDEX 01 00:25:48
  TRACK 31 AUDIO
    TITLE "0:"
    INDEX 01 00:26:56
  TRACK 32 AUDIO
    TITLE "9:cjc034_01056"
    INDEX 01 00:26:60
  TRACK 33 AUDIO
    TITLE "0:"
    INDEX 01 00:27:57
  TRACK 34 AUDIO
    TITLE "10:cjc034_01057"
    INDEX 01 00:28:39
  TRACK 35 AUDIO
    TITLE "0:"
    INDEX 01 00:29:54
  TRACK 36 AUDIO
    TITLE "9:cjc034_01058"
    INDEX 01 00:29:60
  TRACK 37 AUDIO
    TITLE "0:"
    INDEX 01 00:30:69
  TRACK 38 AUDIO
    TITLE "10:cjc034_01059"
    INDEX 01 00:31:51
  TRACK 39 AUDIO
    TITLE "0:"
    INDEX 01 00:34:04
  TRACK 40 AUDIO
    TITLE "9:cjc034_01060"
    INDEX 01 00:34:10
  TRACK 41 AUDIO
    TITLE "0:"
    INDEX 01 00:35:19
  TRACK 42 AUDIO
    TITLE "10:cjc034_01061"
    INDEX 01 00:36:03
  TRACK 43 AUDIO
    TITLE "0:"
    INDEX 01 00:38:57
  TRACK 44 AUDIO
    TITLE "9:cjc034_01062"
    INDEX 01 00:38:65
  TRACK 45 AUDIO
    TITLE "0:"
    INDEX 01 00:40:17
  TRACK 46 AUDIO
    TITLE "10:cjc034_01063"
    INDEX 01 00:41:00
  TRACK 47 AUDIO
    TITLE "0:"
    INDEX 01 00:43:58
  TRACK 48 AUDIO
    TITLE "9:cjc034_01064"
    INDEX 01 00:43:62
  TRACK 49 AUDIO
    TITLE "0:"
    INDEX 01 00:45:06
  TRACK 50 AUDIO
    TITLE "10:cjc034_01065"
    INDEX 01 00:45:63
  TRACK 51 AUDIO
    TITLE "0:"
    INDEX 01 00:47:01
  TRACK 52 AUDIO
    TITLE "9:cjc034_01066"
    INDEX 01 00:47:03
  TRACK 53 AUDIO
    TITLE "0:"
    INDEX 01 00:48:10
  TRACK 54 AUDIO
    TITLE "10:cjc034_01067"
    INDEX 01 00:48:67
  TRACK 55 AUDIO
    TITLE "0:"
    INDEX 01 00:49:65
  TRACK 56 AUDIO
    TITLE "9:cjc034_01068"
    INDEX 01 00:49:74
  TRACK 57 AUDIO
    TITLE "0:"
    INDEX 01 00:51:09
  TRACK 58 AUDIO
    TITLE "10:cjc034_01069"
    INDEX 01 00:51:69
  TRACK 59 AUDIO
    TITLE "0:"
    INDEX 01 00:54:09
  TRACK 60 AUDIO
    TITLE "9:cjc034_01070"
    INDEX 01 00:54:13
  TRACK 61 AUDIO
    TITLE "0:"
    INDEX 01 00:55:22
  TRACK 62 AUDIO
    TITLE "10:cjc034_01071"
    INDEX 01 00:55:73
  TRACK 63 AUDIO
    TITLE "0:"
    INDEX 01 00:57:17
  TRACK 64 AUDIO
    TITLE "9:cjc034_01072"
    INDEX 01 00:57:19
  TRACK 65 AUDIO
    TITLE "0:"
    INDEX 01 00:58:44
  TRACK 66 AUDIO
    TITLE "10:cjc034_01073"
    INDEX 01 00:59:28
  TRACK 67 AUDIO
    TITLE "0:"
    INDEX 01 01:00:35
  TRACK 68 AUDIO
    TITLE "9:cjc034_01074"
    INDEX 01 01:00:41
  TRACK 69 AUDIO
    TITLE "0:"
    INDEX 01 01:01:52
  TRACK 70 AUDIO
    TITLE "10:cjc034_01075"
    INDEX 01 01:02:30
  TRACK 71 AUDIO
    TITLE "0:"
    INDEX 01 01:03:14
  TRACK 72 AUDIO
    TITLE "9:cjc034_01076"
    INDEX 01 01:03:22
  TRACK 73 AUDIO
    TITLE "0:"
    INDEX 01 01:04:21
